<?xml version="1.0" encoding="UTF-8"?>
<svg id="Calque_1" data-name="Calque 1" xmlns="http://www.w3.org/2000/svg" viewBox="0 0 1508.47 1141.73">
  <defs>
    <style>
      .cls-1 {
        fill: #dbd5bb;
      }

      .cls-2 {
        fill: #fff;
      }

      .cls-3 {
        fill: #fcf6dc;
      }

      .cls-4 {
        fill: #c47493;
      }

      .cls-5 {
        stroke: #c47493;
        stroke-width: 13px;
      }

      .cls-5, .cls-6 {
        fill: none;
        stroke-miterlimit: 10;
      }

      .cls-7 {
        fill: #f08cb0;
      }

      .cls-6 {
        stroke: #131337;
        stroke-linecap: round;
        stroke-width: 16px;
      }
    </style>
  </defs>
  <path class="cls-4" d="M591.14,1126.65c-.11,2.36-.25,4.86-1.57,6.82-2.16,3.23-6.57,3.86-10.45,4.17-67.77,5.45-135.98,5.44-203.74-.03,16.87-18.48,37.35-33.63,59.95-44.36,1.47-129.8,2.95-259.82,16.54-388.91,1.12-10.66,2.64-22.04,9.73-30.08,7.62-8.64,19.82-11.32,31.2-13.1,33.67-5.25,67.91-6.75,101.91-4.47,4.95.33,10.4.98,13.72,4.66,2.91,3.22,3.38,7.91,3.5,12.25,2.05,71.47-6.96,145.98-10.2,217.86-3.53,78.39-7.06,156.79-10.59,235.18Z"/>
  <path class="cls-4" d="M755.65,1115.92c.11,2.36.25,4.86,1.57,6.82,2.16,3.23,6.57,3.86,10.45,4.17,67.77,5.45,135.98,5.44,203.74-.03-16.87-18.48-37.35-33.63-59.95-44.36-1.47-129.8-2.95-259.82-16.54-388.91-1.12-10.66-2.64-22.04-9.73-30.08-7.62-8.64-19.82-11.32-31.2-13.1-33.67-5.25-67.91-6.75-101.91-4.47-4.95.33-10.4.98-13.72,4.66-2.91,3.22-3.38,7.91-3.5,12.25-2.05,71.47,6.96,145.98,10.2,217.86,3.53,78.39,7.06,156.79,10.59,235.18Z"/>
  <path class="cls-4" d="M548.71,269.96c28.67-95.12,70.55-186.25,124.06-269.96,53.03,86.89,99.5,177.78,138.89,271.65-88.13,2.76-176.47-1.15-262.95-1.68Z"/>
  <rect class="cls-7" x="253.57" y="258.16" width="850.67" height="538.68" rx="12" ry="12"/>
  <path class="cls-1" d="M1206.3,185.38c29.64-2.44,58.68-11.91,84.05-27.43,67.33,97.9,134.86,198.79,165.88,313.49,2.71,10.01,5.24,20.34,11.12,28.89,2.94,4.27,6.95,8.03,11.51,10.5,10.04,5.46,17.81,14.3,22.65,24.66,2.07,4.43,4.4,8.75,6.96,12.92-6.28-4.93-14.07-7.91-22.04-8.42-5.42-.35-10.88.41-16.29-.05-15.24-1.29-28.23-12.13-36.77-24.83s-13.55-27.37-19.96-41.26c-12.43-26.92-30.39-51.27-52.44-71.1-67.18-60.42-114.56-136.41-154.68-217.37Z"/>
  <path class="cls-3" d="M1348.96,570.47c9.83,15.73,22.15,33.23,40.62,34.89,8.6.77,17.09-2.19,24.94-5.78,20.77-9.48,39.36-23.68,53.98-41.22,3.13-3.75,6.2-7.97,6.53-12.85.34-5.08-2.36-9.81-4.97-14.19-81.39-136.54-164.19-274.88-278.82-385-2.56-2.46-5.35-5.01-8.84-5.65-3.97-.72-7.89,1.2-11.44,3.11-20.27,10.9-39.64,23.45-57.89,37.47-24.8,19.06-26.9,22.83-7.22,47.28,29.25,36.34,57.76,73.26,85.54,110.73,55.55,74.94,108.13,152.09,157.57,231.21Z"/>
  <path class="cls-5" d="M276.26,564.73c-29.89,2.01-60.36,3.97-89.44-3.25-29.08-7.22-57.08-25.24-68.65-52.87-16.34-39.03,3.22-86.32-13.76-125.06-17.92-40.88-67.97-55.5-99.87-86.72,20.81,18.73,42.96,35.97,66.22,51.55,2.52-31.3,5.04-62.59,7.55-93.89,6.53,38.3,9.79,77.15,9.74,116,14.72-33.01,35.33-63.39,60.57-89.26-15.74,35.58-34.18,69.97-55.1,102.77"/>
  <path class="cls-5" d="M1062.08,564.1c34.7,12.6,75.28-3.36,99.12-31.55,23.84-28.19,33.22-66.12,34.89-103,2.31-51.02-8.98-102.59-32.37-147.99,6.99,32.96,15.86,65.52,26.58,97.46,19.7-32.46,48.5-59.32,82.25-76.72-27.05,24.31-53.48,49.32-79.23,75.01,27.15,7.48,52.7,20.71,74.48,38.57-25.13-11.37-49.8-23.78-73.9-37.19"/>
  <g>
    <ellipse class="cls-2" cx="469.89" cy="480.05" rx="87.53" ry="89.72"/>
    <ellipse cx="467.3" cy="477.7" rx="49.76" ry="51"/>
    <ellipse class="cls-2" cx="517.06" cy="477.7" rx="26.32" ry="26.66"/>
    <g>
      <ellipse class="cls-2" cx="868.6" cy="479.07" rx="87.53" ry="89.72"/>
      <ellipse cx="866.02" cy="476.72" rx="49.76" ry="51"/>
      <ellipse class="cls-2" cx="915.78" cy="476.72" rx="26.32" ry="26.66"/>
    </g>
  </g>
  <path class="cls-6" d="M689.99,690.08c39.47-6.03,76.29-27.94,100.42-59.76"/>
</svg>