<?xml version="1.0" encoding="UTF-8"?>
<svg id="Calque_1" data-name="Calque 1" xmlns="http://www.w3.org/2000/svg" xmlns:xlink="http://www.w3.org/1999/xlink" viewBox="0 0 253.4 517.81">
  <defs>
    <style>
      .cls-1 {
        fill: none;
        stroke: #1e1b3d;
        stroke-miterlimit: 10;
        stroke-width: 3.95px;
      }

      .cls-2 {
        fill: url(#Dégradé_sans_nom_79);
      }

      .cls-3 {
        fill: #494595;
      }

      .cls-4 {
        fill: #1e1b3d;
      }
    </style>
    <linearGradient id="Dégradé_sans_nom_79" data-name="Dégradé sans nom 79" x1="0" y1="211.72" x2="253.4" y2="211.72" gradientUnits="userSpaceOnUse">
      <stop offset="0" stop-color="#e4d3e8"/>
      <stop offset=".78" stop-color="#c4617e"/>
    </linearGradient>
  </defs>
  <path class="cls-2" d="M83.51,126.1L4.5,188.51c-2.84,2.24-4.5,5.66-4.5,9.28v27.18c0,1.97.39,3.93,1.14,5.75l.88,2.14c.74,1.79,1.94,3.34,3.48,4.5l77.07,57.91,84.81,2.08,81.06-75.77c2.55-2.38,4.07-5.66,4.25-9.15l.71-13.84c.09-1.69-.36-3.37-1.27-4.8l-3.54-5.55-80.27-62.15h-84.81Z"/>
  <rect class="cls-4" x="124.97" width="4.94" height="515.79"/>
  <rect class="cls-4" x="137.77" y="313.5" width="2.78" height="202.29"/>
  <rect class="cls-4" x="112.17" y="315.52" width="2.78" height="202.29"/>
  <rect class="cls-4" x="83.51" y="106.53" width="84.81" height="19.57"/>
  <rect class="cls-4" x="82.57" y="295.27" width="84.81" height="20.25"/>
  <circle class="cls-4" cx="125.92" cy="367.14" r="25.87"/>
  <circle class="cls-4" cx="125.92" cy="427.65" r="20.26"/>
  <circle class="cls-4" cx="125.92" cy="47.97" r="9.28"/>
  <circle class="cls-4" cx="126.36" cy="13.77" r="4.86"/>
  <path class="cls-1" d="M112.17,124.7l-23.48,53.28c-2.03,4.6-3.2,9.54-3.44,14.56l-1.38,28.12c-.23,4.73.62,9.45,2.5,13.8l27.19,62.89"/>
  <path class="cls-1" d="M141.82,297.35l23.48-53.28c2.03-4.6,3.2-9.54,3.44-14.56l1.38-28.12c.23-4.73-.62-9.45-2.5-13.8l-27.19-62.89"/>
  <path class="cls-1" d="M89.76,120.99l-42.19,56.85c-3.64,4.91-5.66,10.11-5.93,15.34l-1.55,29.27c-.26,4.92,1.52,9.76,5.22,14.15l53.44,63.44"/>
  <path class="cls-1" d="M161.72,300.63l43.31-56.01c3.74-4.84,5.86-10,6.24-15.22l2.14-29.23c.36-4.92-1.33-9.79-4.94-14.25l-52.17-64.49"/>
  <path class="cls-3" d="M128.86,48.71c-.91,2.89-2.83,5.39-5.08,7.42,1.04.66,2.38.61,3.59.37,2.55-.52,4.98-1.91,6.44-4.07.68-1.01,1.14-2.17,1.34-3.37.35-2.15-.17-4.44-1.46-6.18-.95-1.28-3.09-3.1-4.83-2.98-1.16.08-.12,1.5.08,2.13.32,1.01.48,2.07.48,3.13,0,1.21-.19,2.41-.55,3.56Z"/>
  <path class="cls-3" d="M127.37,14.13c-.53,1.46-1.65,2.73-2.97,3.76.61.33,1.39.31,2.1.19,1.5-.26,2.92-.97,3.77-2.06.4-.51.67-1.1.78-1.71.21-1.09-.1-2.25-.86-3.13-.56-.65-1.81-1.57-2.83-1.51-.68.04-.07.76.05,1.08.19.51.28,1.05.28,1.59,0,.61-.11,1.22-.32,1.8Z"/>
</svg>